<mxfile host="app.diagrams.net" modified="2023-05-19T08:24:29.035Z" agent="5.0 (Macintosh; Intel Mac OS X 10_15_7) AppleWebKit/537.36 (KHTML, like Gecko) Chrome/112.0.0.0 Safari/537.36" etag="ukIWa_UZclLztVrsW4ym" version="21.0.6" type="github">
  <diagram id="prtHgNgQTEPvFCAcTncT" name="Page-1">
    <mxGraphModel dx="1026" dy="635" grid="1" gridSize="10" guides="1" tooltips="1" connect="1" arrows="1" fold="1" page="1" pageScale="1" pageWidth="827" pageHeight="1169" math="0" shadow="0">
      <root>
        <mxCell id="0" />
        <mxCell id="1" parent="0" />
        <mxCell id="ikr7QwSfTh8XYOaMAlW1-1" value="归因" style="swimlane;childLayout=stackLayout;resizeParent=1;resizeParentMax=0;startSize=20;horizontal=0;horizontalStack=1;" vertex="1" parent="1">
          <mxGeometry x="220" y="90" width="380" height="360" as="geometry" />
        </mxCell>
        <mxCell id="ikr7QwSfTh8XYOaMAlW1-2" value="媒体" style="swimlane;startSize=20;fillColor=#f5f5f5;fontColor=#333333;strokeColor=#666666;" vertex="1" parent="ikr7QwSfTh8XYOaMAlW1-1">
          <mxGeometry x="20" width="120" height="360" as="geometry" />
        </mxCell>
        <mxCell id="ikr7QwSfTh8XYOaMAlW1-6" value="下发点击事件" style="rounded=0;whiteSpace=wrap;html=1;fillColor=#f5f5f5;fontColor=#333333;strokeColor=#666666;" vertex="1" parent="ikr7QwSfTh8XYOaMAlW1-2">
          <mxGeometry x="15" y="50" width="90" height="50" as="geometry" />
        </mxCell>
        <mxCell id="ikr7QwSfTh8XYOaMAlW1-17" value="回传媒体" style="rounded=0;whiteSpace=wrap;html=1;fillColor=#f5f5f5;fontColor=#333333;strokeColor=#666666;" vertex="1" parent="ikr7QwSfTh8XYOaMAlW1-2">
          <mxGeometry x="15" y="255" width="90" height="50" as="geometry" />
        </mxCell>
        <mxCell id="ikr7QwSfTh8XYOaMAlW1-3" value="DB" style="swimlane;startSize=20;fillColor=#dae8fc;strokeColor=#6c8ebf;" vertex="1" parent="ikr7QwSfTh8XYOaMAlW1-1">
          <mxGeometry x="140" width="120" height="360" as="geometry" />
        </mxCell>
        <mxCell id="ikr7QwSfTh8XYOaMAlW1-7" value="存储点击" style="rounded=0;whiteSpace=wrap;html=1;fillColor=#dae8fc;strokeColor=#6c8ebf;" vertex="1" parent="ikr7QwSfTh8XYOaMAlW1-3">
          <mxGeometry x="15" y="50" width="90" height="50" as="geometry" />
        </mxCell>
        <mxCell id="ikr7QwSfTh8XYOaMAlW1-4" value="广告主 App" style="swimlane;startSize=20;fillColor=#d5e8d4;strokeColor=#82b366;" vertex="1" parent="ikr7QwSfTh8XYOaMAlW1-1">
          <mxGeometry x="260" width="120" height="360" as="geometry" />
        </mxCell>
        <mxCell id="ikr7QwSfTh8XYOaMAlW1-12" style="edgeStyle=orthogonalEdgeStyle;rounded=0;orthogonalLoop=1;jettySize=auto;html=1;entryX=0.5;entryY=0;entryDx=0;entryDy=0;" edge="1" parent="ikr7QwSfTh8XYOaMAlW1-4" source="ikr7QwSfTh8XYOaMAlW1-9" target="ikr7QwSfTh8XYOaMAlW1-10">
          <mxGeometry relative="1" as="geometry" />
        </mxCell>
        <mxCell id="ikr7QwSfTh8XYOaMAlW1-9" value="用户注册登录行为" style="rounded=0;whiteSpace=wrap;html=1;fillColor=#d5e8d4;strokeColor=#82b366;" vertex="1" parent="ikr7QwSfTh8XYOaMAlW1-4">
          <mxGeometry x="15" y="50" width="90" height="50" as="geometry" />
        </mxCell>
        <mxCell id="ikr7QwSfTh8XYOaMAlW1-14" style="edgeStyle=orthogonalEdgeStyle;rounded=0;orthogonalLoop=1;jettySize=auto;html=1;entryX=0.5;entryY=0;entryDx=0;entryDy=0;" edge="1" parent="ikr7QwSfTh8XYOaMAlW1-4" source="ikr7QwSfTh8XYOaMAlW1-10" target="ikr7QwSfTh8XYOaMAlW1-13">
          <mxGeometry relative="1" as="geometry" />
        </mxCell>
        <mxCell id="ikr7QwSfTh8XYOaMAlW1-10" value="查找点击" style="rounded=0;whiteSpace=wrap;html=1;fillColor=#d5e8d4;strokeColor=#82b366;" vertex="1" parent="ikr7QwSfTh8XYOaMAlW1-4">
          <mxGeometry x="15" y="150" width="90" height="50" as="geometry" />
        </mxCell>
        <mxCell id="ikr7QwSfTh8XYOaMAlW1-13" value="归因结果" style="rounded=0;whiteSpace=wrap;html=1;fillColor=#d5e8d4;strokeColor=#82b366;" vertex="1" parent="ikr7QwSfTh8XYOaMAlW1-4">
          <mxGeometry x="15" y="255" width="90" height="50" as="geometry" />
        </mxCell>
        <mxCell id="ikr7QwSfTh8XYOaMAlW1-8" style="edgeStyle=orthogonalEdgeStyle;rounded=0;orthogonalLoop=1;jettySize=auto;html=1;entryX=0;entryY=0.5;entryDx=0;entryDy=0;" edge="1" parent="ikr7QwSfTh8XYOaMAlW1-1" source="ikr7QwSfTh8XYOaMAlW1-6" target="ikr7QwSfTh8XYOaMAlW1-7">
          <mxGeometry relative="1" as="geometry" />
        </mxCell>
        <mxCell id="ikr7QwSfTh8XYOaMAlW1-11" style="edgeStyle=orthogonalEdgeStyle;rounded=0;orthogonalLoop=1;jettySize=auto;html=1;entryX=0.5;entryY=1;entryDx=0;entryDy=0;" edge="1" parent="ikr7QwSfTh8XYOaMAlW1-1" source="ikr7QwSfTh8XYOaMAlW1-10" target="ikr7QwSfTh8XYOaMAlW1-7">
          <mxGeometry relative="1" as="geometry" />
        </mxCell>
        <mxCell id="ikr7QwSfTh8XYOaMAlW1-18" style="edgeStyle=orthogonalEdgeStyle;rounded=0;orthogonalLoop=1;jettySize=auto;html=1;entryX=1;entryY=0.5;entryDx=0;entryDy=0;" edge="1" parent="ikr7QwSfTh8XYOaMAlW1-1" source="ikr7QwSfTh8XYOaMAlW1-13" target="ikr7QwSfTh8XYOaMAlW1-17">
          <mxGeometry relative="1" as="geometry">
            <mxPoint x="130" y="280" as="targetPoint" />
          </mxGeometry>
        </mxCell>
        <mxCell id="ikr7QwSfTh8XYOaMAlW1-5" value="数仓" style="swimlane;startSize=20;fillColor=#ffe6cc;strokeColor=#d79b00;" vertex="1" parent="1">
          <mxGeometry x="600" y="90" width="120" height="360" as="geometry" />
        </mxCell>
        <mxCell id="ikr7QwSfTh8XYOaMAlW1-15" value="同步数仓" style="rounded=0;whiteSpace=wrap;html=1;fillColor=#ffe6cc;strokeColor=#d79b00;" vertex="1" parent="ikr7QwSfTh8XYOaMAlW1-5">
          <mxGeometry x="15" y="255" width="90" height="50" as="geometry" />
        </mxCell>
        <mxCell id="ikr7QwSfTh8XYOaMAlW1-16" style="edgeStyle=orthogonalEdgeStyle;rounded=0;orthogonalLoop=1;jettySize=auto;html=1;entryX=0;entryY=0.5;entryDx=0;entryDy=0;" edge="1" parent="1" source="ikr7QwSfTh8XYOaMAlW1-13" target="ikr7QwSfTh8XYOaMAlW1-15">
          <mxGeometry relative="1" as="geometry" />
        </mxCell>
      </root>
    </mxGraphModel>
  </diagram>
</mxfile>
